<svg width="166" height="40" viewBox="0 0 166 40" fill="none" xmlns="http://www.w3.org/2000/svg">
<path d="M0.466431 3.2284H7.68567L16.0454 18.2765L24.4051 3.2284H31.6255V32.1057H24.4051V15.3769L16.0454 30.425L7.68567 15.3769V32.1057H0.466431V3.2284Z" fill="#3A3481"/>
<path d="M36.3926 38.1164L37.8707 33.4079C39.0099 34.0391 40.1929 34.501 40.8681 34.501C41.9236 34.501 42.8527 34.1648 43.2316 33.576L43.8231 32.3571L34.8732 10.3733H42.2199L47.3283 24.7067L52.1415 10.3733H59.4033L50.8322 32.7356C49.1015 37.1902 46.104 39.6714 42.5151 39.6714C40.5305 39.6714 38.0395 39.0414 36.3938 38.1164H36.3926Z" fill="#3A3481"/>
<path d="M61.553 17.6464C61.553 9.53411 68.6885 2.7253 77.132 2.7253C81.6501 2.7253 85.7868 4.65876 88.6592 7.68409L83.382 12.3503C81.8614 10.4591 79.5817 9.23908 77.1332 9.23908C72.7001 9.23908 68.9435 13.106 68.9435 17.6452C68.9435 22.2267 72.7013 26.0936 77.1332 26.0936C79.6254 26.0936 81.8626 24.8748 83.4245 22.9837L88.6604 27.6075C85.7892 30.6764 81.6513 32.6098 77.1332 32.6098C68.6897 32.6098 61.5543 25.7587 61.5543 17.6452L61.553 17.6464Z" fill="#3A3481"/>
<path d="M113.481 18.2764V32.1056H106.64V19.8737C106.64 17.4772 105.12 15.7964 102.925 15.7964C100.729 15.7964 99.0824 17.4361 99.0824 19.5799V32.1056H91.9057V2.72414H99.0824V12.8122C100.433 11.0045 102.714 9.8703 105.458 9.8703C110.144 9.8703 113.48 13.3587 113.48 18.2764H113.481Z" fill="#3A3481"/>
<path d="M118.249 10.3745H125.384V32.1056H118.249V10.3745ZM118.08 3.94418C118.08 1.96841 119.768 0.245346 121.881 0.245346C123.949 0.245346 125.596 1.96841 125.596 3.94418C125.596 6.00339 123.949 7.72766 121.881 7.72766C119.77 7.72766 118.08 6.00339 118.08 3.94418Z" fill="#3A3481"/>
<path d="M144.002 30.5507C142.693 31.7695 140.54 32.6111 138.683 32.6111C134.588 32.6111 131.716 29.7103 131.716 25.633V16.0492H128.845V10.3746H131.716V4.40612H138.555V10.3746H143.073V16.0492H138.555V24.3295C138.555 25.7165 139.4 26.6838 140.54 26.6838C141.342 26.6838 142.145 26.39 142.567 25.9692L144.002 30.5507Z" fill="#3A3481"/>
<path d="M145.858 29.3318L148.729 24.7503C150.755 26.1795 153.542 27.2315 156.161 27.2315C157.723 27.2315 158.61 26.7272 158.61 25.8857C158.61 24.8349 157.174 24.4141 155.021 23.9099C150.799 22.9438 146.872 21.8507 146.83 17.1434C146.83 12.9815 150.25 9.87148 155.655 9.87148C158.906 9.87148 162.072 11.0057 164.521 12.6453L161.903 17.3115C160.004 16.0926 157.639 15.1676 155.655 15.1676C154.345 15.1676 153.416 15.7565 153.416 16.4288C153.416 17.3949 154.345 17.6053 156.92 18.2776C160.804 19.2026 165.154 20.4638 165.154 25.4238C165.154 29.7949 161.607 32.6123 155.991 32.6123C152.318 32.6123 148.518 31.3934 145.858 29.333V29.3318Z" fill="#3A3481"/>
</svg>
