<svg width="247" height="69" viewBox="0 0 247 69" fill="none" xmlns="http://www.w3.org/2000/svg">
<path fill-rule="evenodd" clip-rule="evenodd" d="M25.2251 0.915527H0.00150871V26.0275C0.00150871 30.3853 3.58319 33.9523 7.9604 33.9523H33.1852V8.8404C33.1852 4.48136 29.6023 0.915527 25.2251 0.915527Z" fill="#F7A906"/>
<path fill-rule="evenodd" clip-rule="evenodd" d="M68.67 43.888V69H43.4464C39.068 69 35.4863 65.4341 35.4863 61.0763V35.9631H60.7099C65.0871 35.9631 68.67 39.529 68.67 43.888Z" fill="#F7A906"/>
<path fill-rule="evenodd" clip-rule="evenodd" d="M-0.000190735 43.888V69H25.2234C29.6018 69 33.1835 65.4341 33.1835 61.0763V35.9631H7.95992C3.58271 35.9631 -0.000190735 39.529 -0.000190735 43.888Z" fill="#F7A906"/>
<path fill-rule="evenodd" clip-rule="evenodd" d="M43.4464 0.915527H68.67V26.0275C68.67 30.3853 65.0883 33.9523 60.7099 33.9523H35.4851V8.8404C35.4851 4.48136 39.068 0.915527 43.4452 0.915527L43.4464 0.915527Z" fill="#F7A906"/>
<path fill-rule="evenodd" clip-rule="evenodd" d="M20.0616 18.0917C19.509 18.0917 19.0377 18.3795 18.8252 18.845C18.6139 19.3093 18.7244 19.8184 19.1155 20.1739L33.3888 33.1845C33.9086 33.6597 34.76 33.6597 35.281 33.1845L49.5543 20.1739C49.9442 19.8172 50.0547 19.3093 49.8434 18.845C49.6321 18.3795 49.1596 18.0917 48.607 18.0917H20.0604H20.0616ZM15.6285 22.0686V48.0874C15.6285 48.5917 15.9443 49.0221 16.4544 49.2144C16.9657 49.4079 17.522 49.3063 17.9131 48.9508L32.1864 35.9402C32.7086 35.465 32.7086 34.6887 32.1864 34.2135L17.9131 21.2041C17.6532 20.9671 17.3216 20.8425 16.9767 20.8425C16.803 20.8425 16.6269 20.874 16.4544 20.9393C15.9443 21.1315 15.6285 21.562 15.6285 22.0674V22.0686ZM50.7579 21.2065L36.4846 34.2159C35.9636 34.6911 35.9636 35.4674 36.4846 35.9426L50.7579 48.9532C51.149 49.3099 51.7053 49.4103 52.2166 49.2168C52.7279 49.0233 53.0437 48.5941 53.0437 48.0899V22.071C53.0437 21.5656 52.7279 21.1351 52.2166 20.9429C52.0466 20.8776 51.868 20.8462 51.6944 20.8462C51.3506 20.8462 51.0179 20.9707 50.7579 21.2077V21.2065ZM33.39 36.7322L19.1167 49.7428C18.7256 50.0995 18.6151 50.6073 18.8264 51.0729C19.0341 51.5287 19.4896 51.8129 20.0264 51.825L48.7175 51.8226C49.224 51.7863 49.6479 51.507 49.8458 51.0729C50.0572 50.6073 49.9466 50.0995 49.5568 49.7428L35.2835 36.7322C35.0223 36.4952 34.6798 36.3755 34.3373 36.3755C33.9948 36.3755 33.6511 36.494 33.3912 36.7322H33.39Z" fill="url(#paint0_radial_1_262)"/>
<path d="M31.0532 30.0311H37.9542C37.9919 30.0359 38.0113 30.0553 38.0113 30.0903V30.7421C38.0113 30.782 37.9919 30.8013 37.9542 30.8013H35.3576V30.8581C35.7256 31.0565 36.0122 31.4627 36.2187 32.0794L36.2466 32.2874H37.9555C37.9931 32.2922 38.0125 32.3116 38.0125 32.3466V33.0008C38.0125 33.0383 37.9931 33.0576 37.9555 33.0576H36.3146C36.3146 33.788 35.8652 34.5002 34.9653 35.1906C34.1661 35.6464 33.6013 35.875 33.2661 35.875C33.2661 35.8943 33.2467 35.9028 33.2078 35.9028L36.9122 40.6814V40.7407H35.5033C35.4912 40.7407 34.0568 38.8918 31.2087 35.1906V35.164H31.652C33.2285 35.164 34.1734 34.5981 34.4904 33.4712C34.5098 33.3345 34.5207 33.2257 34.5207 33.1435V33.0564H31.0544C31.0168 33.0564 30.9961 33.0371 30.9961 32.9996V32.3454C31.0022 32.3055 31.0216 32.2862 31.0544 32.2862H34.4904C34.3738 31.8485 34.1272 31.4893 33.7459 31.2136C33.22 30.938 32.7426 30.8001 32.309 30.8001H31.0544C31.0168 30.8001 30.9961 30.7808 30.9961 30.7409V30.0891C31.0022 30.0492 31.0216 30.0299 31.0544 30.0299L31.0532 30.0311Z" fill="#FEFEFE"/>
<path fill-rule="evenodd" clip-rule="evenodd" d="M42.5221 39.6633L38.4279 42.0163L34.3349 44.3694L30.2419 42.0163L26.1477 39.6633V34.9572V30.2511L30.2419 27.8981L34.3349 25.5463L38.4279 27.8981L42.5221 30.2511V34.9572V39.6633Z" fill="#E31E24"/>
<path fill-rule="evenodd" clip-rule="evenodd" d="M40.8606 38.708V31.2064L34.3349 27.4556L27.8092 31.2064V38.708L34.3349 42.4589L40.8606 38.708Z" stroke="#FEFEFE" stroke-width="0.400344" stroke-miterlimit="22.926" stroke-linecap="round" stroke-linejoin="round"/>
<path d="M31.4917 30.551H37.1733C37.2049 30.5546 37.2207 30.5703 37.2207 30.6006V31.1374C37.2207 31.1701 37.2049 31.1858 37.1733 31.1858H35.0357V31.2329C35.3393 31.3962 35.575 31.7311 35.745 32.239L35.7669 32.4107H37.1733C37.2049 32.4143 37.2207 32.4312 37.2207 32.4603V32.9983C37.2207 33.0298 37.2049 33.0455 37.1733 33.0455H35.8227C35.8227 33.6477 35.4511 34.2329 34.7114 34.8024C34.0531 35.1772 33.5867 35.3647 33.311 35.3647C33.311 35.3816 33.2953 35.3876 33.2637 35.3876L36.3134 39.3211V39.3706H35.1535C35.1426 39.3706 33.9633 37.8483 31.618 34.8024V34.7794H31.9836C33.2807 34.7794 34.0592 34.3139 34.3203 33.3853C34.3373 33.2728 34.3446 33.1833 34.3446 33.1168V33.0455H31.4917C31.4601 33.0455 31.4443 33.0298 31.4443 32.9983V32.4603C31.4492 32.4276 31.4649 32.4107 31.4917 32.4107H34.3203C34.2232 32.0491 34.0216 31.7541 33.7082 31.5268C33.2758 31.2995 32.8823 31.1858 32.5252 31.1858H31.4917C31.4601 31.1858 31.4443 31.1701 31.4443 31.1374V30.6006C31.4492 30.5679 31.4649 30.551 31.4917 30.551Z" fill="#FEFEFE"/>
<path d="M81.4664 18.2284H88.6857L97.0454 33.2765L105.405 18.2284H112.626V47.1057H105.405V30.3769L97.0454 45.425L88.6857 30.3769V47.1057H81.4664V18.2284Z" fill="#3A3481"/>
<path d="M117.393 53.1164L118.871 48.4079C120.01 49.0391 121.193 49.501 121.868 49.501C122.924 49.501 123.853 49.1648 124.232 48.576L124.823 47.3571L115.873 25.3733H123.22L128.328 39.7067L133.142 25.3733H140.403L131.832 47.7356C130.102 52.1902 127.104 54.6714 123.515 54.6714C121.531 54.6714 119.039 54.0414 117.394 53.1164H117.393Z" fill="#3A3481"/>
<path d="M142.553 32.6464C142.553 24.5341 149.688 17.7253 158.132 17.7253C162.65 17.7253 166.787 19.6588 169.659 22.6841L164.382 27.3503C162.861 25.4591 160.582 24.2391 158.133 24.2391C153.7 24.2391 149.944 28.106 149.944 32.6452C149.944 37.2267 153.701 41.0936 158.133 41.0936C160.625 41.0936 162.863 39.8748 164.425 37.9837L169.66 42.6075C166.789 45.6764 162.651 47.6098 158.133 47.6098C149.69 47.6098 142.554 40.7587 142.554 32.6452L142.553 32.6464Z" fill="#3A3481"/>
<path d="M194.481 33.2764V47.1056H187.64V34.8737C187.64 32.4772 186.12 30.7964 183.925 30.7964C181.729 30.7964 180.082 32.4361 180.082 34.5799V47.1056H172.906V17.7241H180.082V27.8122C181.433 26.0045 183.714 24.8703 186.458 24.8703C191.144 24.8703 194.48 28.3587 194.48 33.2764H194.481Z" fill="#3A3481"/>
<path d="M199.249 25.3745H206.384V47.1056H199.249V25.3745ZM199.08 18.9442C199.08 16.9684 200.768 15.2453 202.881 15.2453C204.949 15.2453 206.596 16.9684 206.596 18.9442C206.596 21.0034 204.949 22.7277 202.881 22.7277C200.77 22.7277 199.08 21.0034 199.08 18.9442Z" fill="#3A3481"/>
<path d="M225.002 45.5507C223.693 46.7695 221.54 47.6111 219.683 47.6111C215.588 47.6111 212.716 44.7103 212.716 40.633V31.0492H209.845V25.3746H212.716V19.4061H219.555V25.3746H224.073V31.0492H219.555V39.3295C219.555 40.7165 220.4 41.6838 221.54 41.6838C222.342 41.6838 223.145 41.39 223.567 40.9692L225.002 45.5507Z" fill="#3A3481"/>
<path d="M226.858 44.3318L229.729 39.7503C231.755 41.1795 234.542 42.2315 237.161 42.2315C238.723 42.2315 239.61 41.7272 239.61 40.8857C239.61 39.8349 238.174 39.4141 236.021 38.9099C231.799 37.9438 227.872 36.8507 227.83 32.1434C227.83 27.9815 231.25 24.8715 236.655 24.8715C239.906 24.8715 243.072 26.0057 245.521 27.6453L242.903 32.3115C241.004 31.0926 238.639 30.1676 236.655 30.1676C235.345 30.1676 234.416 30.7565 234.416 31.4288C234.416 32.3949 235.345 32.6053 237.92 33.2776C241.804 34.2026 246.154 35.4638 246.154 40.4238C246.154 44.7949 242.607 47.6123 236.991 47.6123C233.318 47.6123 229.518 46.3934 226.858 44.333V44.3318Z" fill="#3A3481"/>
<defs>
<radialGradient id="paint0_radial_1_262" cx="0" cy="0" r="1" gradientUnits="userSpaceOnUse" gradientTransform="translate(32.8147 35.9164) rotate(89.9996) scale(9.24223 10.2508)">
<stop stop-color="#3D3185"/>
<stop offset="1" stop-color="#3A3180"/>
</radialGradient>
</defs>
</svg>
